<svg width="48" height="48" xmlns="http://www.w3.org/2000/svg">

 <g>
  <title>background</title>
  <rect fill="none" id="canvas_background" height="402" width="582" y="-1" x="-1"/>
 </g>
 <g>
  <title>Layer 1</title>
  <path id="svg_1" fill="none" d="m0,0l48,0l0,48l-48,0l0,-48z"/>
  <path id="svg_2" d="m38.71,20.07c-1.36,-6.88 -7.43,-12.07 -14.71,-12.07c-5.78,0 -10.79,3.28 -13.3,8.07c-6.01,0.65 -10.7,5.74 -10.7,11.93c0,6.63 5.37,12 12,12l26,0c5.52,0 10,-4.48 10,-10c0,-5.28 -4.11,-9.56 -9.29,-9.93zm-4.71,5.93l-10,10l-10,-10l6,0l0,-8l8,0l0,8l6,0z"/>
 </g>
</svg>